<?xml version="1.0" encoding="utf-8"?>
<svg version="1.2" xmlns:xlink="http://www.w3.org/1999/xlink" width="100%" viewBox="0 0 200 200" baseProfile="tiny-ps" xmlns="http://www.w3.org/2000/svg">
  <title>gingercatwebdesign.net</title>
<path fill="#FEFEFE" stroke="none" d=" M101.000000,201.000000   C67.354073,201.000000 34.208145,201.000000 1.031109,201.000000   C1.031109,134.395767 1.031109,67.791527 1.031109,1.093641   C67.562431,1.093641 134.125046,1.093641 200.843826,1.093641   C200.843826,67.666382 200.843826,134.333145 200.843826,201.000000   C167.791809,201.000000 134.645905,201.000000 101.000000,201.000000  M121.056915,73.901001   C118.461235,73.901001 115.865562,73.901001 112.937134,73.901001   C112.937134,77.174004 112.937134,79.919456 112.937134,82.763084   C103.579613,82.763084 94.585709,82.763084 85.211914,82.763084   C85.211914,79.682564 85.211914,76.922592 85.211914,73.705841   C81.705643,73.955025 78.608360,74.175140 76.092148,73.501465   C76.092148,70.624657 76.092148,67.747849 76.092148,65.037598   C72.713249,65.037598 69.990372,65.037598 67.220718,65.037598   C67.220718,68.067879 67.220718,70.791435 67.220718,73.658722   C70.162506,73.883789 72.889908,74.092453 76.091827,75.068939   C76.091827,77.663094 76.091827,80.257248 76.091827,83.219635   C72.818878,83.219635 70.069336,83.219635 66.920319,83.219635   C66.920319,86.368797 66.920319,89.123024 66.920319,92.290726   C63.764008,92.290726 61.014072,92.290726 58.055866,92.290726   C57.906193,95.464249 57.775810,98.228706 57.623989,101.447754   C54.648514,101.447754 51.900360,101.447754 48.891342,101.447754   C48.891342,110.829948 48.891342,119.745354 48.891342,128.755371   C51.857491,128.755371 54.730404,128.755371 57.951771,128.755371   C57.951771,122.660950 57.951771,116.900993 57.951771,110.971710   C61.054153,110.971710 63.794571,110.971710 67.037750,110.971710   C67.037750,117.067986 67.037750,122.965256 67.037750,129.214706   C70.344849,129.214706 73.150917,129.214706 76.108116,130.032730   C76.108116,132.657623 76.108116,135.282516 76.108116,138.022705   C82.490364,138.022705 88.425720,138.022705 94.420258,138.022705   C94.420258,134.996475 94.420258,132.235092 94.420258,129.350159   C88.040947,129.350159 81.930397,129.350159 76.133926,128.440567   C76.133926,125.679832 76.133926,122.919090 76.133926,120.164764   C91.821831,120.164764 106.863068,120.164764 122.318039,120.164764   C122.086601,123.183121 121.875633,125.934616 120.885155,129.058807   C115.305222,129.058807 109.725296,129.058807 104.039322,129.058807   C104.039322,132.355637 104.039322,135.098618 104.039322,138.014847   C110.106720,138.014847 115.964439,138.014847 122.393829,138.014847   C122.100662,134.693436 121.830933,131.637543 122.436836,129.009979   C125.344292,129.009979 128.251740,129.009979 131.549103,129.009979   C131.549103,122.645378 131.549103,116.893379 131.549103,111.031494   C134.733643,111.031494 137.493698,111.031494 140.800613,111.031494   C140.800613,117.155060 140.800613,123.025551 140.800613,128.767654   C144.106628,128.767654 146.850433,128.767654 149.695923,128.767654   C149.695923,119.653015 149.695923,110.871040 149.695923,101.780319   C146.677368,101.585373 143.792175,101.399048 140.446533,101.182976   C140.446533,98.012894 140.446533,95.269997 140.446533,92.095055   C137.179153,92.095055 134.411514,92.095055 131.567261,92.095055   C131.416916,88.873909 131.287125,86.093353 131.139740,82.935516   C128.061081,82.935516 125.295372,82.935516 122.402054,82.935516   C122.197166,79.599632 122.015930,76.648872 122.763901,73.925163   C125.526207,73.925163 128.288513,73.925163 131.172989,73.925163   C131.172989,70.648415 131.172989,67.896172 131.172989,65.058426   C128.069275,65.058426 125.196167,65.058426 121.971230,65.058426   C121.971230,68.206688 121.971230,71.019112 121.056915,73.901001  z" />
<path fill="#050505" stroke="none" d=" M75.511078,74.395256   C78.608360,74.175140 81.705643,73.955025 85.211914,73.705841   C85.211914,76.922592 85.211914,79.682564 85.211914,82.763084   C94.585709,82.763084 103.579613,82.763084 112.937134,82.763084   C112.937134,79.919456 112.937134,77.174004 112.937134,73.901001   C115.865562,73.901001 118.461235,73.901001 121.482925,73.829865   C121.908936,73.758728 121.834702,73.698112 121.834702,73.698112   C122.015930,76.648872 122.197166,79.599632 122.402054,82.935516   C125.295372,82.935516 128.061081,82.935516 131.139740,82.935516   C131.287125,86.093353 131.416916,88.873909 131.567261,92.095055   C134.411514,92.095055 137.179153,92.095055 140.446533,92.095055   C140.446533,95.269997 140.446533,98.012894 140.446533,101.182976   C143.792175,101.399048 146.677368,101.585373 149.695923,101.780319   C149.695923,110.871040 149.695923,119.653015 149.695923,128.767654   C146.850433,128.767654 144.106628,128.767654 140.800613,128.767654   C140.800613,123.025551 140.800613,117.155060 140.800613,111.031494   C137.493698,111.031494 134.733643,111.031494 131.549103,111.031494   C131.549103,116.893379 131.549103,122.645378 131.549103,129.009979   C128.251740,129.009979 125.344292,129.009979 122.026939,128.819885   C121.617043,128.629807 121.664658,128.686111 121.664658,128.686111   C121.875633,125.934616 122.086601,123.183121 122.318039,120.164764   C106.863068,120.164764 91.821831,120.164764 76.133926,120.164764   C76.133926,122.919090 76.133926,125.679832 76.014496,128.864868   C75.895065,129.289169 75.956978,129.214706 75.956978,129.214706   C73.150917,129.214706 70.344849,129.214706 67.037750,129.214706   C67.037750,122.965256 67.037750,117.067986 67.037750,110.971710   C63.794571,110.971710 61.054153,110.971710 57.951771,110.971710   C57.951771,116.900993 57.951771,122.660950 57.951771,128.755371   C54.730404,128.755371 51.857491,128.755371 48.891342,128.755371   C48.891342,119.745354 48.891342,110.829948 48.891342,101.447754   C51.900360,101.447754 54.648514,101.447754 57.623989,101.447754   C57.775810,98.228706 57.906193,95.464249 58.055866,92.290726   C61.014072,92.290726 63.764008,92.290726 66.920319,92.290726   C66.920319,89.123024 66.920319,86.368797 66.920319,83.219635   C70.069336,83.219635 72.818878,83.219635 76.091827,83.219635   C76.091827,80.257248 76.091827,77.663094 75.827637,74.708138   C75.563438,74.347336 75.511078,74.395256 75.511078,74.395256  M76.970009,92.371727   C76.612915,95.299538 76.255829,98.227356 75.877678,101.327812   C79.509041,101.327812 82.236557,101.327812 85.105247,101.327812   C85.105247,98.172394 85.105247,95.299095 85.105247,92.203842   C82.453735,92.203842 80.150406,92.203842 76.970009,92.371727  M115.699203,92.191872   C109.934769,94.049416 114.388008,98.246269 112.957115,101.323044   C116.367943,101.323044 119.107262,101.323044 121.849442,101.323044   C121.849442,98.190842 121.849442,95.324440 121.849442,92.191093   C119.872391,92.191093 118.245613,92.191093 115.699203,92.191872  z" />
<path fill="#0D0D0D" stroke="none" d=" M75.857452,129.319672   C81.930397,129.350159 88.040947,129.350159 94.420258,129.350159   C94.420258,132.235092 94.420258,134.996475 94.420258,138.022705   C88.425720,138.022705 82.490364,138.022705 76.108116,138.022705   C76.108116,135.282516 76.108116,132.657623 76.032547,129.623718   C75.956978,129.214706 75.895065,129.289169 75.857452,129.319672  z" />
<path fill="#040404" stroke="none" d=" M121.589127,128.605713   C121.830933,131.637543 122.100662,134.693436 122.393829,138.014847   C115.964439,138.014847 110.106720,138.014847 104.039322,138.014847   C104.039322,135.098618 104.039322,132.355637 104.039322,129.058807   C109.725296,129.058807 115.305222,129.058807 121.274902,128.872467   C121.664658,128.686111 121.617043,128.629807 121.589127,128.605713  z" />
<path fill="#0B0B0B" stroke="none" d=" M121.940079,73.795135   C121.971230,71.019112 121.971230,68.206688 121.971230,65.058426   C125.196167,65.058426 128.069275,65.058426 131.172989,65.058426   C131.172989,67.896172 131.172989,70.648415 131.172989,73.925163   C128.288513,73.925163 125.526207,73.925163 122.299301,73.811638   C121.834702,73.698112 121.908936,73.758728 121.940079,73.795135  z" />
<path fill="#060606" stroke="none" d=" M75.590378,74.324226   C72.889908,74.092453 70.162506,73.883789 67.220718,73.658722   C67.220718,70.791435 67.220718,68.067879 67.220718,65.037598   C69.990372,65.037598 72.713249,65.037598 76.092148,65.037598   C76.092148,67.747849 76.092148,70.624657 75.801613,73.948364   C75.511078,74.395256 75.563438,74.347336 75.590378,74.324226  z" />
<path fill="#E4E4E4" stroke="none" d=" M77.408539,92.287781   C80.150406,92.203842 82.453735,92.203842 85.105247,92.203842   C85.105247,95.299095 85.105247,98.172394 85.105247,101.327812   C82.236557,101.327812 79.509041,101.327812 75.877678,101.327812   C76.255829,98.227356 76.612915,95.299538 77.408539,92.287781  z" />
<path fill="#E9E9E9" stroke="none" d=" M116.159019,92.191483   C118.245613,92.191093 119.872391,92.191093 121.849442,92.191093   C121.849442,95.324440 121.849442,98.190842 121.849442,101.323044   C119.107262,101.323044 116.367943,101.323044 112.957115,101.323044   C114.388008,98.246269 109.934769,94.049416 116.159019,92.191483  z" />
</svg>